<svg width="44" height="32" viewBox="0 0 44 32" fill="none" xmlns="http://www.w3.org/2000/svg">
<path d="M12.2222 0H7.33333C3.28957 0 0 3.06021 0 6.82203V11.37C0 15.1319 3.28957 18.1921 7.33333 18.1921H12.2222C13.0071 18.1921 13.7492 18.0467 14.4587 17.8331C13.4731 23.189 8.48075 27.2881 2.44444 27.2881C1.09332 27.2881 0 28.3052 0 29.5621C0 30.819 1.09332 31.8361 2.44444 31.8361C11.8785 31.8361 19.5556 24.6944 19.5556 15.9181V6.82203C19.5556 3.06021 16.266 0 12.2222 0ZM36.6667 0H31.7778C27.734 0 24.4444 3.06021 24.4444 6.82203V11.37C24.4444 15.1319 27.734 18.1921 31.7778 18.1921H36.6667C37.4515 18.1921 38.1936 18.0467 38.9032 17.8331C37.9176 23.189 32.9252 27.2881 26.8889 27.2881C25.5378 27.2881 24.4444 28.3052 24.4444 29.5621C24.4444 30.819 25.5378 31.8361 26.8889 31.8361C36.323 31.8361 44 24.6944 44 15.9181V6.82203C44 3.06021 40.7104 0 36.6667 0Z" fill="#20B486"/>
<path d="M14.9505 17.9236L15.0987 17.1183L14.3146 17.3543C13.6369 17.5583 12.9448 17.6921 12.2222 17.6921H7.33333C3.53107 17.6921 0.5 14.8223 0.5 11.37V6.82203C0.5 3.36977 3.53107 0.5 7.33333 0.5H12.2222C16.0245 0.5 19.0556 3.36977 19.0556 6.82203V15.9181C19.0556 24.3848 11.637 31.3361 2.44444 31.3361C1.33481 31.3361 0.5 30.5095 0.5 29.5621C0.5 28.6148 1.33481 27.7881 2.44444 27.7881C8.7031 27.7881 13.9179 23.5348 14.9505 17.9236ZM39.3949 17.9236L39.5431 17.1183L38.759 17.3543C38.0813 17.5583 37.3892 17.6921 36.6667 17.6921H31.7778C27.9755 17.6921 24.9444 14.8223 24.9444 11.37V6.82203C24.9444 3.36977 27.9755 0.5 31.7778 0.5H36.6667C40.4689 0.5 43.5 3.36977 43.5 6.82203V15.9181C43.5 24.3848 36.0815 31.3361 26.8889 31.3361C25.7793 31.3361 24.9444 30.5095 24.9444 29.5621C24.9444 28.6148 25.7793 27.7881 26.8889 27.7881C33.1475 27.7881 38.3623 23.5348 39.3949 17.9236Z" stroke="black" stroke-opacity="0.1"/>
</svg>
