<svg width="44" height="32" viewBox="0 0 44 32" fill="none" xmlns="http://www.w3.org/2000/svg">
<path d="M31.7778 0H36.6667C40.7104 0 44 3.06021 44 6.82203V11.37C44 15.1319 40.7104 18.1921 36.6667 18.1921H31.7778C30.9929 18.1921 30.2508 18.0467 29.5413 17.8331C30.5269 23.189 35.5192 27.2881 41.5556 27.2881C42.9067 27.2881 44 28.3052 44 29.5621C44 30.819 42.9067 31.8361 41.5556 31.8361C32.1215 31.8361 24.4444 24.6944 24.4444 15.9181V6.82203C24.4444 3.06021 27.734 0 31.7778 0ZM7.33334 0H12.2222C16.266 0 19.5556 3.06021 19.5556 6.82203V11.37C19.5556 15.1319 16.266 18.1921 12.2222 18.1921H7.33334C6.5485 18.1921 5.80637 18.0467 5.09683 17.8331C6.08243 23.189 11.0748 27.2881 17.1111 27.2881C18.4622 27.2881 19.5556 28.3052 19.5556 29.5621C19.5556 30.819 18.4622 31.8361 17.1111 31.8361C7.67702 31.8361 0 24.6944 0 15.9181V6.82203C0 3.06021 3.28957 0 7.33334 0Z" fill="#20B486"/>
<path d="M29.0495 17.9236L28.9013 17.1183L29.6854 17.3543C30.3631 17.5583 31.0552 17.6921 31.7778 17.6921H36.6667C40.4689 17.6921 43.5 14.8223 43.5 11.37V6.82203C43.5 3.36977 40.4689 0.5 36.6667 0.5H31.7778C27.9755 0.5 24.9444 3.36977 24.9444 6.82203V15.9181C24.9444 24.3848 32.363 31.3361 41.5556 31.3361C42.6652 31.3361 43.5 30.5095 43.5 29.5621C43.5 28.6148 42.6652 27.7881 41.5556 27.7881C35.2969 27.7881 30.0821 23.5348 29.0495 17.9236ZM4.60509 17.9236L4.45689 17.1183L5.24097 17.3543C5.91866 17.5583 6.61077 17.6921 7.33334 17.6921H12.2222C16.0245 17.6921 19.0556 14.8223 19.0556 11.37V6.82203C19.0556 3.36977 16.0245 0.5 12.2222 0.5H7.33334C3.53107 0.5 0.5 3.36977 0.5 6.82203V15.9181C0.5 24.3848 7.91852 31.3361 17.1111 31.3361C18.2207 31.3361 19.0556 30.5095 19.0556 29.5621C19.0556 28.6148 18.2207 27.7881 17.1111 27.7881C10.8525 27.7881 5.63768 23.5348 4.60509 17.9236Z" stroke="black" stroke-opacity="0.1"/>
</svg>
