<svg width="18" height="18" viewBox="0 0 18 18" fill="none" xmlns="http://www.w3.org/2000/svg">
<path d="M9 0.25C4.16797 0.25 0.25 4.16797 0.25 9C0.25 13.832 4.16797 17.75 9 17.75C13.832 17.75 17.75 13.832 17.75 9C17.75 4.16797 13.832 0.25 9 0.25ZM9.10547 13.3359C6.95703 13.3359 5.71875 11.9062 5.71875 9.5293V8.50781C5.71875 6.11328 6.95703 4.66406 9.10352 4.66406C10.9453 4.66406 12.2812 5.84961 12.2812 7.54297C12.2812 7.59375 12.2402 7.63477 12.1895 7.63477H11.082C11 7.63477 10.9336 7.57227 10.9258 7.49023C10.8477 6.52344 10.1445 5.86133 9.10938 5.86133C7.83398 5.86133 7.11523 6.80859 7.11523 8.50781V9.53516C7.11523 11.209 7.83594 12.1445 9.10938 12.1445C10.1406 12.1445 10.8418 11.5254 10.9258 10.625C10.9336 10.5449 11 10.4824 11.082 10.4824H12.1914C12.2422 10.4824 12.2832 10.5234 12.2832 10.5742C12.2832 12.1875 10.9414 13.3359 9.10547 13.3359Z" fill="#11AD8E"/>
</svg>
